<svg version="1.0" xmlns="http://www.w3.org/2000/svg"
     width="760.000000pt" height="1300.000000pt" viewBox="300 0 800.000000 1355.000000"
     preserveAspectRatio="xMidYMid meet">
  <g transform="translate(322.5,1545.000000) scale(0.100000,-0.100000)" fill="#e7e5e4" stroke="none">
    <path d="M3921 15216 c-7 -8 -25 -54 -41 -103 -99 -307 -312 -690 -604 -1083 -112 -152 -431 -566 -446 -580 -6 -5 -82 -102 -146 -186 -162 -211 -202 -265 -268 -361 -333 -481 -515 -778 -670 -1094 -58 -118 -106 -222 -106 -230 0 -9 -3 -19 -7 -23 -24 -24 -101 -302 -125 -451 -16 -104 -16 -415 1 -530 30 -212 78 -381 154 -545 34 -75 197 -337 230 -372 7 -7 22 -26 35 -42 12 -15 41 -50 64 -76 24 -26 55 -60 69 -76 83 -94 334 -314 511 -448 81 -62 338 -226 354 -226 3 0 24 -8 47 -19 127 -56 370 -118 393 -100 29 23 -30 182 -114 309 -86 131 -121 212 -185 430 -60 207 -107 566 -107 825 0 240 53 599 106 722 8 17 14 36 14 43 0 6 20 54 45 107 25 52 45 97 45 99 0 7 121 204 152 249 16 22 43 63 62 90 80 122 293 375 491 585 170 181 242 258 294 316 30 32 145 151 256 264 291 296 296 310 229 640 -15 71 -47 196 -64 250 -5 14 -16 52 -25 85 -38 135 -218 663 -245 720 -5 11 -46 110 -90 220 -65 159 -225 508 -268 584 -12 21 -27 24 -41 7z"/>
    <path d="M5707 13992 c-90 -180 -229 -412 -329 -547 -13 -16 -41 -55 -63 -85 -164 -225 -455 -551 -911 -1020 -257 -264 -370 -386 -510 -551 -150 -175 -149 -174 -260 -324 -58 -77 -108 -145 -113 -150 -26 -34 -111 -187 -124 -225 -39 -111 -79 -251 -117 -410 -33 -139 -60 -393 -60 -570 0 -124 21 -335 44 -440 8 -36 19 -90 25 -120 6 -30 16 -68 21 -85 94 -299 161 -459 238 -572 51 -75 112 -144 122 -138 9 6 18 56 35 210 19 162 37 270 88 505 16 75 90 305 112 347 8 15 15 33 15 39 0 6 6 24 14 40 7 16 20 45 27 64 62 159 217 414 366 602 139 176 369 388 538 498 33 21 66 44 73 51 12 10 92 57 472 276 193 111 425 231 480 248 70 21 291 145 338 189 56 51 65 79 70 211 6 147 -25 495 -64 715 -8 47 -19 114 -25 150 -12 72 -35 178 -54 255 -83 316 -152 540 -205 664 -60 139 -145 296 -162 299 -14 3 -33 -27 -81 -126z"/>
    <path d="M1226 13668 c-3 -7 -7 -31 -11 -53 -35 -212 -85 -407 -136 -532 -35 -84 -42 -101 -54 -128 -8 -16 -20 -46 -27 -65 -17 -47 -274 -555 -328 -650 -24 -41 -76 -138 -115 -215 -40 -77 -92 -178 -117 -225 -45 -87 -96 -203 -121 -275 -91 -259 -107 -311 -131 -420 -37 -174 -41 -222 -40 -455 2 -239 3 -252 53 -484 19 -84 100 -305 149 -406 103 -210 336 -479 560 -648 181 -136 211 -155 397 -250 70 -35 103 -50 200 -92 100 -42 391 -121 520 -140 39 -6 97 -15 130 -20 33 -5 161 -10 285 -10 221 0 330 6 330 19 0 4 -44 36 -97 71 -54 36 -100 67 -103 71 -3 3 -50 37 -105 74 -92 63 -253 181 -265 194 -3 4 -23 19 -45 36 -45 33 -198 169 -260 230 -198 195 -367 447 -465 690 -17 44 -40 100 -50 125 -52 130 -95 344 -111 552 -12 160 -3 376 22 508 35 186 79 352 120 455 4 11 38 97 74 190 37 94 81 195 98 225 34 61 55 98 116 211 122 225 111 322 -83 731 -31 64 -74 164 -97 223 -78 203 -160 353 -237 433 -44 45 -51 49 -56 30z"/>
    <path d="M7638 12988 c-8 -13 -25 -52 -38 -88 -110 -306 -384 -664 -700 -914 -47 -37 -96 -76 -110 -87 -14 -11 -70 -49 -125 -86 -55 -36 -119 -79 -142 -94 -23 -16 -44 -29 -47 -29 -3 0 -24 -13 -48 -29 -100 -67 -357 -203 -738 -392 -329 -163 -405 -206 -575 -319 -344 -231 -646 -555 -852 -915 -38 -67 -115 -222 -146 -295 -44 -101 -113 -351 -146 -525 -27 -148 -42 -536 -21 -574 15 -29 85 -32 340 -16 462 30 808 108 1173 266 183 79 232 106 434 234 380 241 766 671 1109 1236 84 139 225 424 284 574 92 235 110 283 110 296 0 8 4 19 9 25 5 5 19 43 31 84 12 41 28 93 35 115 7 22 27 101 44 175 18 74 36 151 41 170 5 19 18 87 29 150 12 63 25 135 31 160 5 25 14 90 20 145 5 55 14 143 19 195 36 339 41 544 15 554 -21 8 -20 9 -36 -16z"/>
    <path d="M2340 8291 l-155 -6 0 -382 c0 -300 3 -385 13 -395 11 -11 258 -13 1305 -12 l1291 0 9 35 c10 42 13 727 3 737 -4 4 -92 10 -194 14 -259 9 -2082 17 -2272 9z"/>
    <path d="M2900 7232 c-76 -4 -84 -13 -76 -87 7 -66 29 -297 45 -475 6 -63 15 -153 21 -200 6 -47 15 -134 20 -195 6 -60 17 -171 25 -245 9 -74 22 -207 30 -295 8 -88 22 -227 30 -310 8 -82 19 -204 25 -270 5 -66 12 -138 15 -160 3 -22 12 -114 21 -205 37 -401 54 -564 79 -790 3 -25 12 -115 21 -200 8 -85 22 -213 29 -285 8 -71 21 -204 30 -295 37 -398 51 -537 65 -665 9 -71 20 -176 39 -345 l6 -55 120 -3 c164 -4 162 -5 170 66 3 31 12 102 20 157 8 55 17 118 19 140 4 51 24 192 36 270 6 33 15 103 20 155 9 89 13 127 39 350 6 47 20 173 31 280 11 107 27 258 35 335 8 77 22 205 30 285 8 80 20 183 25 230 11 88 21 185 39 380 18 181 41 421 47 470 3 25 11 117 19 205 39 432 45 507 55 595 5 52 16 172 25 265 8 94 20 206 26 250 5 44 14 130 19 190 5 61 13 146 19 190 5 44 11 118 13 165 l3 85 -58 7 c-58 7 -1071 16 -1177 10z"/>
  </g>
</svg>